<mxfile host="65bd71144e">
    <diagram id="yc0IzqEK58tRtfggVM6u" name="第 1 页">
        <mxGraphModel dx="1808" dy="1973" grid="1" gridSize="10" guides="1" tooltips="1" connect="1" arrows="1" fold="1" page="1" pageScale="1" pageWidth="827" pageHeight="1169" math="0" shadow="0">
            <root>
                <mxCell id="0"/>
                <mxCell id="1" parent="0"/>
                <mxCell id="62" style="edgeStyle=none;html=1;fontColor=#FFFFFF;" edge="1" parent="1" source="2" target="60">
                    <mxGeometry relative="1" as="geometry"/>
                </mxCell>
                <mxCell id="2" value="启动流程" style="strokeWidth=2;html=1;shape=mxgraph.flowchart.start_1;whiteSpace=wrap;" vertex="1" parent="1">
                    <mxGeometry x="80" y="160" width="100" height="60" as="geometry"/>
                </mxCell>
                <mxCell id="3" value="&lt;h1&gt;本地归集流程&lt;/h1&gt;&lt;p&gt;Lorem ipsum dolor sit amet, consectetur adipisicing elit, sed do eiusmod tempor incididunt ut labore et dolore magna aliqua.&lt;/p&gt;" style="text;html=1;strokeColor=none;fillColor=none;spacing=5;spacingTop=-20;whiteSpace=wrap;overflow=hidden;rounded=0;" vertex="1" parent="1">
                    <mxGeometry x="250" width="190" height="120" as="geometry"/>
                </mxCell>
                <mxCell id="36" style="edgeStyle=none;html=1;exitX=0.5;exitY=1;exitDx=0;exitDy=0;entryX=0.5;entryY=0;entryDx=0;entryDy=0;" edge="1" parent="1" source="4" target="7">
                    <mxGeometry relative="1" as="geometry"/>
                </mxCell>
                <mxCell id="59" style="edgeStyle=none;html=1;exitX=0.5;exitY=1;exitDx=0;exitDy=0;entryX=0.5;entryY=0;entryDx=0;entryDy=0;fontColor=#FFFFFF;" edge="1" parent="1" source="4" target="37">
                    <mxGeometry relative="1" as="geometry"/>
                </mxCell>
                <mxCell id="4" value="存储当前【Record】：用户+牌照" style="whiteSpace=wrap;html=1;strokeWidth=2;" vertex="1" parent="1">
                    <mxGeometry x="280" y="280" width="120" height="60" as="geometry"/>
                </mxCell>
                <mxCell id="10" value="" style="edgeStyle=none;html=1;" edge="1" parent="1" source="7" target="77">
                    <mxGeometry relative="1" as="geometry"/>
                </mxCell>
                <mxCell id="7" value="创建轮询【等待列表】定时器，在Record中存储定时器ID" style="whiteSpace=wrap;html=1;strokeWidth=2;" vertex="1" parent="1">
                    <mxGeometry x="80" y="400" width="120" height="60" as="geometry"/>
                </mxCell>
                <mxCell id="13" value="" style="edgeStyle=none;html=1;startArrow=none;" edge="1" parent="1" source="9" target="12">
                    <mxGeometry relative="1" as="geometry">
                        <mxPoint x="150" y="610" as="sourcePoint"/>
                    </mxGeometry>
                </mxCell>
                <mxCell id="41" value="否" style="edgeStyle=none;html=1;" edge="1" parent="1" source="12" target="40">
                    <mxGeometry relative="1" as="geometry"/>
                </mxCell>
                <mxCell id="43" value="是" style="edgeStyle=none;html=1;" edge="1" parent="1" source="12" target="42">
                    <mxGeometry relative="1" as="geometry"/>
                </mxCell>
                <mxCell id="12" value="列表长度&amp;gt;0" style="rhombus;whiteSpace=wrap;html=1;strokeWidth=2;" vertex="1" parent="1">
                    <mxGeometry x="100" y="770" width="80" height="80" as="geometry"/>
                </mxCell>
                <mxCell id="15" value="" style="edgeStyle=orthogonalEdgeStyle;rounded=1;orthogonalLoop=1;jettySize=auto;html=1;labelBackgroundColor=none;strokeColor=#FFFFFF;fontColor=default;" edge="1" parent="1" source="16" target="18">
                    <mxGeometry relative="1" as="geometry"/>
                </mxCell>
                <mxCell id="16" value="创建归集" style="strokeWidth=2;html=1;shape=mxgraph.flowchart.start_1;whiteSpace=wrap;rounded=1;labelBackgroundColor=none;fillColor=#EEEEEE;strokeColor=#FFFFFF;fontColor=#1A1A1A;" vertex="1" parent="1">
                    <mxGeometry x="-480" y="200" width="120" height="60" as="geometry"/>
                </mxCell>
                <mxCell id="17" value="登录/切换登录" style="strokeWidth=2;html=1;shape=mxgraph.flowchart.start_1;whiteSpace=wrap;rounded=1;labelBackgroundColor=none;fillColor=#EEEEEE;strokeColor=#FFFFFF;fontColor=#1A1A1A;" vertex="1" parent="1">
                    <mxGeometry x="-680" y="200" width="120" height="60" as="geometry"/>
                </mxCell>
                <mxCell id="27" value="" style="edgeStyle=none;html=1;" edge="1" parent="1" source="18" target="26">
                    <mxGeometry relative="1" as="geometry"/>
                </mxCell>
                <mxCell id="18" value="初始化进程通信监听（once）" style="whiteSpace=wrap;html=1;strokeWidth=2;rounded=1;labelBackgroundColor=none;fillColor=#EEEEEE;strokeColor=#FFFFFF;fontColor=#1A1A1A;" vertex="1" parent="1">
                    <mxGeometry x="-480" y="290" width="120" height="60" as="geometry"/>
                </mxCell>
                <mxCell id="21" value="【清理】+&lt;br&gt;【本地归集流程】" style="rounded=1;whiteSpace=wrap;html=1;absoluteArcSize=1;arcSize=14;strokeWidth=2;align=center;labelBackgroundColor=none;fillColor=#EEEEEE;strokeColor=#FFFFFF;fontColor=#1A1A1A;" vertex="1" parent="1">
                    <mxGeometry x="-580" y="790" width="100" height="100" as="geometry"/>
                </mxCell>
                <mxCell id="22" style="edgeStyle=orthogonalEdgeStyle;rounded=1;orthogonalLoop=1;jettySize=auto;html=1;align=center;labelBackgroundColor=none;strokeColor=#FFFFFF;fontColor=default;" edge="1" parent="1" source="23" target="24">
                    <mxGeometry relative="1" as="geometry"/>
                </mxCell>
                <mxCell id="23" value="注销登录" style="strokeWidth=2;html=1;shape=mxgraph.flowchart.start_1;whiteSpace=wrap;rounded=1;labelBackgroundColor=none;fillColor=#EEEEEE;strokeColor=#FFFFFF;fontColor=#1A1A1A;" vertex="1" parent="1">
                    <mxGeometry x="-280" y="200" width="120" height="60" as="geometry"/>
                </mxCell>
                <mxCell id="24" value="【清理】" style="rounded=1;whiteSpace=wrap;html=1;absoluteArcSize=1;arcSize=14;strokeWidth=2;align=center;labelBackgroundColor=none;fillColor=#EEEEEE;strokeColor=#FFFFFF;fontColor=#1A1A1A;" vertex="1" parent="1">
                    <mxGeometry x="-270" y="400" width="100" height="100" as="geometry"/>
                </mxCell>
                <mxCell id="25" value="&lt;h1&gt;【本地归集流程】触发场景&lt;/h1&gt;&lt;p&gt;1.登录/切换用户；2.创建归集；3.注销登录&lt;/p&gt;" style="text;html=1;strokeColor=none;fillColor=none;spacing=5;spacingTop=-20;whiteSpace=wrap;overflow=hidden;rounded=1;align=center;labelBackgroundColor=none;fontColor=#FFFFFF;" vertex="1" parent="1">
                    <mxGeometry x="-630" width="450" height="90" as="geometry"/>
                </mxCell>
                <mxCell id="30" value="" style="edgeStyle=none;html=1;" edge="1" parent="1" source="26" target="29">
                    <mxGeometry relative="1" as="geometry"/>
                </mxCell>
                <mxCell id="26" value="选择本地文件" style="whiteSpace=wrap;html=1;fillColor=#EEEEEE;strokeColor=#FFFFFF;fontColor=#1A1A1A;strokeWidth=2;rounded=1;labelBackgroundColor=none;" vertex="1" parent="1">
                    <mxGeometry x="-480" y="380" width="120" height="60" as="geometry"/>
                </mxCell>
                <mxCell id="32" value="" style="edgeStyle=none;html=1;" edge="1" parent="1" source="29" target="31">
                    <mxGeometry relative="1" as="geometry"/>
                </mxCell>
                <mxCell id="29" value="（通过主进程通信）获取文件列表信息" style="whiteSpace=wrap;html=1;fillColor=#EEEEEE;strokeColor=#FFFFFF;fontColor=#1A1A1A;strokeWidth=2;rounded=1;labelBackgroundColor=none;" vertex="1" parent="1">
                    <mxGeometry x="-480" y="480" width="120" height="60" as="geometry"/>
                </mxCell>
                <mxCell id="34" style="edgeStyle=none;html=1;" edge="1" parent="1" source="31" target="33">
                    <mxGeometry relative="1" as="geometry"/>
                </mxCell>
                <mxCell id="31" value="提交文件列表信息，获取【归集ID】" style="whiteSpace=wrap;html=1;fillColor=#EEEEEE;strokeColor=#FFFFFF;fontColor=#1A1A1A;strokeWidth=2;rounded=1;labelBackgroundColor=none;" vertex="1" parent="1">
                    <mxGeometry x="-480" y="580" width="120" height="60" as="geometry"/>
                </mxCell>
                <mxCell id="33" value="本地缓存【等待列表】：包括归集ID+文件列表信息" style="whiteSpace=wrap;html=1;fillColor=#EEEEEE;strokeColor=#FFFFFF;fontColor=#1A1A1A;strokeWidth=2;rounded=1;labelBackgroundColor=none;" vertex="1" parent="1">
                    <mxGeometry x="-480" y="680" width="120" height="60" as="geometry"/>
                </mxCell>
                <mxCell id="65" value="" style="edgeStyle=none;html=1;fontColor=#FFFFFF;" edge="1" parent="1" source="37" target="83">
                    <mxGeometry relative="1" as="geometry"/>
                </mxCell>
                <mxCell id="37" value="&lt;span style=&quot;color: rgb(255, 255, 255);&quot;&gt;获取【当前用户】：&lt;/span&gt;&lt;br style=&quot;color: rgb(255, 255, 255);&quot;&gt;&lt;span style=&quot;color: rgb(255, 255, 255);&quot;&gt;用户id+牌照&lt;/span&gt;" style="whiteSpace=wrap;html=1;strokeWidth=2;" vertex="1" parent="1">
                    <mxGeometry x="520" y="400" width="120" height="60" as="geometry"/>
                </mxCell>
                <mxCell id="40" value="end" style="strokeWidth=2;html=1;shape=mxgraph.flowchart.terminator;whiteSpace=wrap;" vertex="1" parent="1">
                    <mxGeometry x="250" y="780" width="100" height="60" as="geometry"/>
                </mxCell>
                <mxCell id="45" value="" style="edgeStyle=none;html=1;" edge="1" parent="1" source="42" target="81">
                    <mxGeometry relative="1" as="geometry">
                        <mxPoint x="150" y="910" as="targetPoint"/>
                    </mxGeometry>
                </mxCell>
                <mxCell id="42" value="异步：查询所有item的归集状态" style="whiteSpace=wrap;html=1;strokeWidth=2;" vertex="1" parent="1">
                    <mxGeometry x="80" y="910" width="120" height="60" as="geometry"/>
                </mxCell>
                <mxCell id="47" style="edgeStyle=none;html=1;fontColor=#FFFFFF;exitX=1;exitY=0.5;exitDx=0;exitDy=0;exitPerimeter=0;" edge="1" parent="1" source="81" target="46">
                    <mxGeometry relative="1" as="geometry">
                        <mxPoint x="180" y="970" as="sourcePoint"/>
                    </mxGeometry>
                </mxCell>
                <mxCell id="48" value="否" style="edgeLabel;html=1;align=center;verticalAlign=middle;resizable=0;points=[];fontColor=#FFFFFF;" vertex="1" connectable="0" parent="47">
                    <mxGeometry x="-0.0704" y="-1" relative="1" as="geometry">
                        <mxPoint as="offset"/>
                    </mxGeometry>
                </mxCell>
                <mxCell id="50" value="是" style="edgeStyle=none;html=1;fontColor=#FFFFFF;" edge="1" parent="1" source="81" target="51">
                    <mxGeometry relative="1" as="geometry">
                        <mxPoint x="140" y="1010" as="sourcePoint"/>
                        <mxPoint x="140" y="1080" as="targetPoint"/>
                    </mxGeometry>
                </mxCell>
                <mxCell id="46" value="end" style="strokeWidth=2;html=1;shape=mxgraph.flowchart.terminator;whiteSpace=wrap;fontColor=#FFFFFF;" vertex="1" parent="1">
                    <mxGeometry x="260" y="1030" width="100" height="60" as="geometry"/>
                </mxCell>
                <mxCell id="53" value="" style="edgeStyle=none;html=1;fontColor=#FFFFFF;" edge="1" parent="1" source="51" target="52">
                    <mxGeometry relative="1" as="geometry"/>
                </mxCell>
                <mxCell id="54" value="是" style="edgeLabel;html=1;align=center;verticalAlign=middle;resizable=0;points=[];fontColor=#FFFFFF;" vertex="1" connectable="0" parent="53">
                    <mxGeometry x="-0.22" y="2" relative="1" as="geometry">
                        <mxPoint as="offset"/>
                    </mxGeometry>
                </mxCell>
                <mxCell id="58" value="否" style="edgeStyle=none;html=1;fontColor=#FFFFFF;" edge="1" parent="1" source="51">
                    <mxGeometry relative="1" as="geometry">
                        <mxPoint y="1210" as="targetPoint"/>
                    </mxGeometry>
                </mxCell>
                <mxCell id="51" value="接口正常返回数据" style="strokeWidth=2;html=1;shape=mxgraph.flowchart.decision;whiteSpace=wrap;fontColor=#FFFFFF;" vertex="1" parent="1">
                    <mxGeometry x="90" y="1160" width="100" height="100" as="geometry"/>
                </mxCell>
                <mxCell id="56" value="" style="edgeStyle=none;html=1;fontColor=#FFFFFF;" edge="1" parent="1" source="52" target="55">
                    <mxGeometry relative="1" as="geometry"/>
                </mxCell>
                <mxCell id="52" value="将item移除【等待队列】并更新" style="whiteSpace=wrap;html=1;fontColor=#FFFFFF;strokeWidth=2;" vertex="1" parent="1">
                    <mxGeometry x="80" y="1320" width="120" height="60" as="geometry"/>
                </mxCell>
                <mxCell id="57" style="edgeStyle=none;html=1;exitX=0;exitY=0.5;exitDx=0;exitDy=0;fontColor=#FFFFFF;entryX=0;entryY=0.5;entryDx=0;entryDy=0;" edge="1" parent="1" source="55" target="7">
                    <mxGeometry relative="1" as="geometry">
                        <mxPoint y="770" as="targetPoint"/>
                        <Array as="points">
                            <mxPoint y="1450"/>
                            <mxPoint y="430"/>
                        </Array>
                    </mxGeometry>
                </mxCell>
                <mxCell id="55" value="对比处理数据，加入【上传队列】" style="whiteSpace=wrap;html=1;fontColor=#FFFFFF;strokeWidth=2;" vertex="1" parent="1">
                    <mxGeometry x="80" y="1420" width="120" height="60" as="geometry"/>
                </mxCell>
                <mxCell id="61" value="" style="edgeStyle=none;html=1;fontColor=#FFFFFF;" edge="1" parent="1" source="60" target="4">
                    <mxGeometry relative="1" as="geometry"/>
                </mxCell>
                <mxCell id="60" value="关闭当前【定时器】+清理【Record】" style="whiteSpace=wrap;html=1;strokeWidth=2;" vertex="1" parent="1">
                    <mxGeometry x="280" y="160" width="120" height="60" as="geometry"/>
                </mxCell>
                <mxCell id="63" value="&lt;h1&gt;Q&amp;amp;A&amp;amp;note&lt;/h1&gt;&lt;p&gt;note1：【等待队列】已归集任务为单位，【上传队列】以文件为单位，每个单位中加入了【归集ID】，用户后续更改状态&lt;/p&gt;&lt;p&gt;Q：为什么在接口完成后检查用户是否匹配？&lt;/p&gt;&lt;p&gt;A：因为所有异步操作，是无法保证随【定时器】的清除而清除，从而可能导致重复的操作&lt;/p&gt;&lt;p&gt;Q：【上传队列】为什么没有使用定时器，如何控制重复&lt;/p&gt;&lt;p&gt;A：上传会将item从队列中“取出”，上传失败再重新放回去，所以即时多次启动任务，同一个item也不会被多个任务上传&lt;/p&gt;" style="text;html=1;strokeColor=none;fillColor=none;spacing=5;spacingTop=-20;whiteSpace=wrap;overflow=hidden;rounded=0;fontColor=#FFFFFF;" vertex="1" parent="1">
                    <mxGeometry x="827" y="90" width="343" height="520" as="geometry"/>
                </mxCell>
                <mxCell id="68" style="edgeStyle=none;html=1;fontColor=#FFFFFF;" edge="1" parent="1" source="64" target="67">
                    <mxGeometry relative="1" as="geometry"/>
                </mxCell>
                <mxCell id="64" value="从列表中取一个文件信息，" style="whiteSpace=wrap;html=1;strokeWidth=2;" vertex="1" parent="1">
                    <mxGeometry x="520" y="600" width="120" height="60" as="geometry"/>
                </mxCell>
                <mxCell id="71" value="是" style="edgeStyle=none;html=1;fontColor=#FFFFFF;" edge="1" parent="1" source="67" target="70">
                    <mxGeometry relative="1" as="geometry"/>
                </mxCell>
                <mxCell id="67" value="检验文件是否符合规范" style="strokeWidth=2;html=1;shape=mxgraph.flowchart.decision;whiteSpace=wrap;fontColor=#FFFFFF;" vertex="1" parent="1">
                    <mxGeometry x="530" y="710" width="100" height="100" as="geometry"/>
                </mxCell>
                <mxCell id="73" style="edgeStyle=none;html=1;fontColor=#FFFFFF;" edge="1" parent="1" source="70" target="72">
                    <mxGeometry relative="1" as="geometry"/>
                </mxCell>
                <mxCell id="70" value="异步：上传文件" style="whiteSpace=wrap;html=1;fontColor=#FFFFFF;strokeWidth=2;" vertex="1" parent="1">
                    <mxGeometry x="520" y="850" width="120" height="60" as="geometry"/>
                </mxCell>
                <mxCell id="76" value="是" style="edgeStyle=none;html=1;fontColor=#FFFFFF;" edge="1" parent="1" source="72" target="74">
                    <mxGeometry relative="1" as="geometry"/>
                </mxCell>
                <mxCell id="72" value="检查入参的【当前用户】与Store中的是否匹配" style="strokeWidth=2;html=1;shape=mxgraph.flowchart.decision;whiteSpace=wrap;fontColor=#FFFFFF;" vertex="1" parent="1">
                    <mxGeometry x="530" y="950" width="100" height="100" as="geometry"/>
                </mxCell>
                <mxCell id="74" value="" style="whiteSpace=wrap;html=1;fontColor=#FFFFFF;strokeWidth=2;" vertex="1" parent="1">
                    <mxGeometry x="520" y="1100" width="120" height="60" as="geometry"/>
                </mxCell>
                <mxCell id="79" style="edgeStyle=none;html=1;fontColor=#FFFFFF;" edge="1" parent="1" source="77" target="78">
                    <mxGeometry relative="1" as="geometry"/>
                </mxCell>
                <mxCell id="77" value="等待【定时器】触发" style="whiteSpace=wrap;html=1;strokeWidth=2;" vertex="1" parent="1">
                    <mxGeometry x="80" y="500" width="120" height="60" as="geometry"/>
                </mxCell>
                <mxCell id="80" style="edgeStyle=none;html=1;fontColor=#FFFFFF;" edge="1" parent="1" source="78" target="9">
                    <mxGeometry relative="1" as="geometry"/>
                </mxCell>
                <mxCell id="78" value="获取【当前用户】：&lt;br style=&quot;&quot;&gt;用户id+牌照" style="whiteSpace=wrap;html=1;strokeWidth=2;fontColor=#FFFFFF;" vertex="1" parent="1">
                    <mxGeometry x="80" y="590" width="120" height="60" as="geometry"/>
                </mxCell>
                <mxCell id="81" value="检查入参的【当前用户】与Store中的是否匹配，定时器ID是否匹配" style="strokeWidth=2;html=1;shape=mxgraph.flowchart.decision;whiteSpace=wrap;fontColor=#FFFFFF;" vertex="1" parent="1">
                    <mxGeometry x="90" y="1010" width="100" height="100" as="geometry"/>
                </mxCell>
                <mxCell id="9" value="获取【当前用户】的【等待列表】" style="whiteSpace=wrap;html=1;strokeWidth=2;" vertex="1" parent="1">
                    <mxGeometry x="80" y="680" width="120" height="60" as="geometry"/>
                </mxCell>
                <mxCell id="84" style="edgeStyle=none;html=1;fontColor=#FFFFFF;" edge="1" parent="1" source="83" target="64">
                    <mxGeometry relative="1" as="geometry"/>
                </mxCell>
                <mxCell id="83" value="获取【当前用户】的【上传队列】" style="whiteSpace=wrap;html=1;strokeWidth=2;fontColor=#FFFFFF;" vertex="1" parent="1">
                    <mxGeometry x="520" y="500" width="120" height="60" as="geometry"/>
                </mxCell>
            </root>
        </mxGraphModel>
    </diagram>
</mxfile>